PathFileType	4	(X/Y/Z)	10_1_21_p0_0-558_filt_butterworth.trc
DataRate	CameraRate	NumFrames	NumMarkers	Units	OrigDataRate	OrigDataStartFrame	OrigNumFrames
60.0	60.0	7	27	m	60.0	69	558
Frame#	Time	RHip			RKnee			RAnkle			RBigToe			RSmallToe			RHeel			LHip			LKnee			LAnkle			LBigToe			LSmallToe			LHeel			Neck			Head			Nose			RShoulder			RElbow			RWrist			RThumb			RIndex			RPinky			LShoulder			LElbow			LWrist			LThumb			LIndex			LPinky			
		X1	Y1	Z1	X2	Y2	Z2	X3	Y3	Z3	X4	Y4	Z4	X5	Y5	Z5	X6	Y6	Z6	X7	Y7	Z7	X8	Y8	Z8	X9	Y9	Z9	X10	Y10	Z10	X11	Y11	Z11	X12	Y12	Z12	X13	Y13	Z13	X14	Y14	Z14	X15	Y15	Z15	X16	Y16	Z16	X17	Y17	Z17	X18	Y18	Z18	X19	Y19	Z19	X20	Y20	Z20	X21	Y21	Z21	X22	Y22	Z22	X23	Y23	Z23	X24	Y24	Z24	X25	Y25	Z25	X26	Y26	Z26	X27	Y27	Z27	
69	1.15	0.30654007584702414	0.8316242017878949	0.7210729690285509	0.3101510474270813	0.356794292158059	0.753796983873719	0.3154877733410069	-0.0923519919516371	0.8180907931956547	0.27545942346809416	-0.10098193711197358	0.6129897884416989	0.333708976486621	-0.1116733294611925	0.6547425333652089	0.2930226218049289	-0.16423043642991966	0.8960463606238325	0.08042998409972195	0.8284876301226316	0.7189020316777635	0.08289150684799838	0.3704436103561845	0.7373337393232609	0.08542790142273737	-0.07463817259305347	0.7891748972744601	0.1145806816726044	-0.10071703554262676	0.605923494725403	0.05592834268692104	-0.09427237753857853	0.6344541786343822	0.09382578901650498	-0.17305913132458486	0.9205124221080161	0.19143571133476228	1.427152868498433	0.7127404361531843	0.21685910604285108	1.6681141979934313	0.6461710708386987	0.21142114316525018	1.550196205759484	0.5990192132239224	0.36097150199316447	1.3680814076326662	0.734572261946052	0.40511694996497605	1.0949477181968306	0.6856799760982752	0.29577913257323485	1.1769054862285764	0.5124089336854738	0.19762642375352937	1.2518934590170436	0.38613702664645533	0.2010468522670248	1.2505417282393876	0.36109506540354624	0.232427906040157	1.189247160141075	0.4092926442856581	0.04376116811934978	1.3654695028885504	0.7246203073494879	-0.017048517118617323	1.1015545031546237	0.6991797035011955	0.079077679188889	1.192994532478272	0.5128818154526259	0.11631290288563073	1.2584520907284888	0.42509973301811493	0.11214895708313594	1.2652927546519266	0.3954691330675109	0.10643249244659546	1.20043150696858	0.4648109380414025	
70	1.1666666666666667	0.3064586411063766	0.8317876562404799	0.7209035244082436	0.31005339983708624	0.35723671492698666	0.7536416364973566	0.3150121285498683	-0.09320991962598542	0.8194805195942939	0.2754510080420465	-0.1009593405120735	0.6129818585975414	0.33375619351242924	-0.11299321643916152	0.6544286411466265	0.2929649544098271	-0.16395406729725057	0.8958509409639024	0.0799643618983657	0.8280740267576865	0.7186168703038042	0.08309607825626476	0.37025096910913663	0.7377650292705953	0.08496812212959923	-0.07395747088541242	0.7887238008510618	0.11455798783656373	-0.10054521618217706	0.6060060516355731	0.05603845771218946	-0.09393658661359618	0.6340561243405053	0.09374922117243699	-0.1726380088529811	0.9203450101680911	0.19127941592191966	1.4283190864039024	0.712574925510645	0.2150531657978132	1.666993052992159	0.6469606363546376	0.21095549212588763	1.5501933432725339	0.5991231657684806	0.3596604236797103	1.3694129085658568	0.7340873840718402	0.40311091642576546	1.0974342289692112	0.6728441131410918	0.2932483529661519	1.1857006077906165	0.5117017108674752	0.19551037084567174	1.2661266873056007	0.3906859847957797	0.19967698430681785	1.26605992979175	0.362947136771846	0.22659172794809812	1.2043203603488721	0.4012605936663387	0.04402134283971756	1.365473885584648	0.7248475983752295	-0.015007849547159467	1.0986558322141802	0.6854101740778005	0.07985556565263692	1.2052377250258337	0.5153675972462175	0.11105616098007418	1.2786981553629055	0.4388630250792934	0.11123573626601509	1.285997249367498	0.40996718307898383	0.10799664147653885	1.2230356233331081	0.46462172825181486	
71	1.1833333333333331	0.3063328393791184	0.8315766555948629	0.7207150190950445	0.30994793015021344	0.3577221081714662	0.7534860640502202	0.31453746263990895	-0.09407514419123757	0.820877054405505	0.275480007132035	-0.10104426091164831	0.6131424689054812	0.3338406109758534	-0.11460690446970093	0.6543391433684369	0.2929131310168129	-0.1637313875625476	0.8957189275410379	0.07955369514144855	0.8273828430182529	0.7185398641176227	0.08346012634112017	0.3700808999650491	0.7378969407199087	0.08449155858317901	-0.07312794224572934	0.7882031719438143	0.11449779811129893	-0.1005684768248275	0.6062660290154631	0.056517831744049035	-0.0930281403065907	0.6327623373590202	0.09366527304297226	-0.17209026301304306	0.9201087718493931	0.19097405203168338	1.4295625446266935	0.7127055484514446	0.21338244478167367	1.6664656839453553	0.6465366204002911	0.21063513429529562	1.5503101953420109	0.598244588819667	0.3583685189567246	1.3702020493361053	0.7327872977589207	0.4000609550508152	1.100761857999131	0.6593911686940293	0.2898346965291577	1.1954200803165858	0.509899394305544	0.1930992573426041	1.27987650438298	0.3964317696665901	0.198303476710588	1.2821857547107733	0.36402375656127817	0.2202334406339877	1.2198998752812178	0.3934458349073604	0.04456251670740756	1.3654457655395285	0.7249511489962337	-0.01134755972195043	1.0976491310713898	0.6716215214820231	0.08071218800848257	1.2181194645956956	0.5170735507941844	0.10620105109091102	1.2986650411556044	0.45334843179991924	0.11033525390044897	1.3065983121663565	0.42441627013346084	0.11170635657146082	1.2463937657840543	0.4572521379306012	
72	1.2	0.30621157489189066	0.8310496098090316	0.7205331449191312	0.3098386439664047	0.35828328859738584	0.7533283926292991	0.3140652833537616	-0.09494550923408344	0.8222742625262406	0.27555054342753893	-0.10124307640172032	0.6134806840574089	0.3339191670222388	-0.11607200695663254	0.6543515762586392	0.29287026980175096	-0.16358974340601545	0.8956897689109994	0.07929723730953622	0.8266047127479897	0.7187067926753566	0.08392614654958748	0.3699092952623031	0.7377290229258604	0.08405229711916878	-0.07225616578157534	0.7877058695024595	0.11436835254493136	-0.10067209352453639	0.6066664580325072	0.05736393978841803	-0.09158463116901938	0.6306218370820815	0.09357546361943561	-0.17146768896106887	0.9198434371732476	0.19044034098204526	1.4307471545988715	0.7126621717883346	0.21214424201653698	1.6665723731477922	0.6448673778196823	0.21008739074358762	1.5506567918844492	0.595775671447605	0.3572056013447751	1.3703080146658575	0.7306826707334644	0.3963843671086628	1.1042616470585265	0.6466130245251889	0.2851891052085093	1.2060736551572855	0.5068039353444579	0.19000952171657198	1.2936057473923686	0.4035651001686834	0.19659857612417553	1.299943001296523	0.3644582284947142	0.21366641937951084	1.2371868986125516	0.3871733926898021	0.04540368274075968	1.3653875079040205	0.7248515556448316	-0.006308404942964265	1.098384747883152	0.6582884360456216	0.08182427055427559	1.2315989399775245	0.5180373133728369	0.10210213953687391	1.3182100557648013	0.4676957137499421	0.10970266811614615	1.3269624494481729	0.43850791993254706	0.1170918689172597	1.2698904852098	0.4463811210125098	
73	1.2166666666666666	0.30613754101194884	0.83038199492147	0.7203894046292424	0.30973363778635393	0.3589221730656609	0.7531611315402956	0.3135785492114343	-0.09584762211846568	0.8237160956598085	0.2756109507274646	-0.1014026940748603	0.6137464638247864	0.333963015262772	-0.11698259201682677	0.6543708044687677	0.2928426381480073	-0.16354160645123583	0.8957540707906126	0.07931350787947465	0.8259462950857958	0.7190097352210647	0.08444191425194697	0.3697291299185107	0.7372989758823624	0.08368806687593303	-0.0714930862005906	0.7872936696153825	0.1142630026662057	-0.10073764282183152	0.6069069751822048	0.05845861297236095	-0.08981401324848054	0.6279425812005772	0.09348123511507106	-0.17089184863195725	0.9196067524834182	0.18974855390499304	1.431700594724203	0.7122369560351707	0.21145769606154724	1.6671659604767068	0.6422530389785992	0.2088471863860874	1.551298884495371	0.5913996740307956	0.3562857265552495	1.3698377218720321	0.7281079855406342	0.3923267204311509	1.1074337581808993	0.6359875072513708	0.279252506811683	1.2177416514113448	0.5017074577325459	0.18613442651580067	1.3081906464884832	0.4113347281950379	0.19437119742356937	1.3197941248132294	0.36463447910906055	0.20735172145034603	1.2568262155762395	0.3826997806809409	0.046376584246253634	1.365330824074793	0.7245593809818707	-0.000540905250196141	1.1006021756596038	0.6459072444667605	0.08325366915239503	1.2452672723451592	0.5191353949270924	0.09903529719091476	1.336703273713791	0.4817025862694997	0.1095116400266533	1.3463248569473383	0.45148310851046225	0.12347873606946812	1.2926942594079456	0.43665700794463114	
74	1.2333333333333334	0.3061180761387039	0.8297482281513219	0.7202907581242037	0.30964346937550546	0.359570765398903	0.752979106935564	0.31305781652929293	-0.09681060826780785	0.8252547930509883	0.27556360899441745	-0.10124380124312186	0.613478908206945	0.33397080881404106	-0.11721707720703997	0.6543522630327014	0.29284070802614953	-0.16357020536118194	0.8958599856847347	0.0796558615470275	0.8255049463402093	0.7192928751501685	0.08499494187799586	0.36958504582209556	0.7366375326564134	0.08340092405491896	-0.07094019973166088	0.7869694484578452	0.11438571068173942	-0.10067232143841923	0.6064921578307475	0.05964249882442771	-0.08797536681247235	0.6251177435518509	0.09338441826848778	-0.17048418944136715	0.9194310329013382	0.18903684018328215	1.4323153112618878	0.7115151986623556	0.21112091620784834	1.668021175717666	0.6394727430139111	0.20643404279751187	1.552200751876697	0.5853987669679579	0.3556459860094935	1.3691678188865815	0.7255463733841916	0.3877661721250609	1.1100309376207458	0.6287918776127432	0.2723130613666681	1.2304888543563313	0.4944689137603344	0.181745576317375	1.324097706950779	0.4194414543768993	0.19159682927624866	1.3408211555263265	0.365437992867362	0.20167264994763867	1.2780942396960566	0.3793297472806922	0.04722333206841942	1.3653207457176986	0.7241845720648568	0.004986543041706463	1.103771586903737	0.6353786434328701	0.08479505683885427	1.258548491091042	0.5215404713252727	0.09714187917206181	1.3531531996485895	0.49594805428512617	0.10970787962717997	1.3637183596357008	0.4628042549094613	0.13002603533775786	1.3140697173903366	0.4308528321481943	
75	1.25	0.30613616177153624	0.8292672951696123	0.7202120393770433	0.3095758861658253	0.36011988705518216	0.7527897100266182	0.31252127458245776	-0.09779568828437285	0.8268351681338869	0.27532952590184223	-0.1005693939160393	0.6123500896437437	0.3339697877859008	-0.11702579303408742	0.6543163794561122	0.29287246116236376	-0.16364082443687494	0.8959653747847283	0.0802817244602474	0.825270542664766	0.7194277459300228	0.08558817802776203	0.3695474631919421	0.7357749887851612	0.08318855701037692	-0.07062602370546106	0.7867238364527498	0.1148962156669458	-0.10042173448669206	0.6051368886315336	0.06075206021355911	-0.0863178541603549	0.6225427864500197	0.09328551242078661	-0.17030446552105874	0.9193124529948035	0.18838209146223714	1.4326511860522828	0.7107149233573674	0.21070217292043303	1.668829147205337	0.6375525604244235	0.2026564961949855	1.5532487777578132	0.5787002949445172	0.3551915559295069	1.3687227181014705	0.7233623544280918	0.38236926195781545	1.1119536036551567	0.6255241649513499	0.2650830187548391	1.2439871074689532	0.48652793573698383	0.17753782890179126	1.340780978100811	0.4286227461277642	0.18832191392947556	1.3611703624376015	0.36800493893384917	0.19672557117975703	1.2992765376033288	0.3765146405257638	0.04778900243456865	1.365383409363397	0.7239063440444234	0.009422956667298664	1.1071027042713801	0.627894499402988	0.08617897231150824	1.270752836716726	0.5259461197450531	0.09639608311986964	1.366412448368106	0.5111949110039451	0.1101059935475414	1.3781676196669157	0.47314006863145874	0.13598578734097508	1.3332545470992085	0.4292147781558292	
